<svg width="26" height="27" viewBox="0 0 26 27" fill="none" xmlns="http://www.w3.org/2000/svg">
<path d="M17.6454 26V21.3987C17.69 20.8318 17.6134 20.2619 17.4207 19.7268C17.228 19.1918 16.9236 18.7039 16.5278 18.2955C20.2611 17.8794 24.1847 16.4645 24.1847 9.97283C24.1844 8.31284 23.5459 6.71651 22.4013 5.51423C22.9433 4.06193 22.9049 2.45664 22.2943 1.03186C22.2943 1.03186 20.8913 0.61572 17.6454 2.79152C14.9203 2.05296 12.0478 2.05296 9.32271 2.79152C6.07686 0.61572 4.67388 1.03186 4.67388 1.03186C4.06321 2.45664 4.02488 4.06193 4.56688 5.51423C3.41374 6.72542 2.77455 8.33618 2.78344 10.0085C2.78344 16.4527 6.707 17.8675 10.4403 18.3312C10.0492 18.7354 9.74749 19.2175 9.55493 19.746C9.36237 20.2745 9.28325 20.8376 9.32271 21.3987V26M9.32271 22.4331C3.37792 24.2166 3.37792 19.4607 1 18.8662L9.32271 22.4331Z" stroke="#56B6FF" stroke-width="2" stroke-linecap="round" stroke-linejoin="round"/>
</svg>
