<svg width="29" height="27" viewBox="0 0 29 27" fill="none" xmlns="http://www.w3.org/2000/svg">
<path d="M19.421 8.89471C21.5149 8.89471 23.5229 9.72648 25.0035 11.207C26.484 12.6876 27.3158 14.6956 27.3158 16.7895V26H22.0526V16.7895C22.0526 16.0915 21.7754 15.4222 21.2818 14.9286C20.7883 14.4351 20.119 14.1579 19.421 14.1579C18.7231 14.1579 18.0538 14.4351 17.5602 14.9286C17.0667 15.4222 16.7895 16.0915 16.7895 16.7895V26H11.5263V16.7895C11.5263 14.6956 12.3581 12.6876 13.8386 11.207C15.3192 9.72648 17.3272 8.89471 19.421 8.89471V8.89471Z" stroke="#56B6FF" stroke-width="2" stroke-linecap="round" stroke-linejoin="round"/>
<path d="M6.26316 10.2106H1V26H6.26316V10.2106Z" stroke="#56B6FF" stroke-width="2" stroke-linecap="round" stroke-linejoin="round"/>
<path d="M3.63158 6.26316C5.08496 6.26316 6.26316 5.08496 6.26316 3.63158C6.26316 2.1782 5.08496 1 3.63158 1C2.1782 1 1 2.1782 1 3.63158C1 5.08496 2.1782 6.26316 3.63158 6.26316Z" stroke="#56B6FF" stroke-width="2" stroke-linecap="round" stroke-linejoin="round"/>
</svg>
